<svg version="1.1" id="Layer_1" xmlns="http://www.w3.org/2000/svg" xmlns:xlink="http://www.w3.org/1999/xlink" x="0px" y="0px"
	 width="100%" viewBox="0 0 1366 768" enable-background="new 0 0 1366 768" xml:space="preserve">
<path fill="#000000" opacity="1.000000" stroke="none" 
	d="
M789.000000,769.000000 
	C526.030701,769.000000 263.561401,769.000000 1.046047,769.000000 
	C1.046047,513.060669 1.046047,257.121277 1.046047,1.090954 
	C456.219421,1.090954 911.438904,1.090954 1366.829102,1.090954 
	C1366.829102,256.999908 1366.829102,512.999939 1366.829102,769.000000 
	C1174.454346,769.000000 981.977173,769.000000 789.000000,769.000000 
M420.000031,354.500000 
	C419.666687,322.430084 419.240692,290.360687 419.049866,258.289917 
	C418.982391,246.954102 417.372131,235.882996 413.913422,225.170120 
	C408.390625,208.063904 397.559235,195.470001 379.692841,191.254501 
	C368.521271,188.618637 356.805359,187.309616 345.314209,187.183838 
	C303.007599,186.720764 260.692871,186.997681 218.381195,187.010040 
	C216.956238,187.010468 215.531296,187.159088 214.326538,187.226334 
	C214.326538,215.064087 214.326538,242.459366 214.326538,270.237152 
	C255.376480,270.237152 296.100800,270.237152 337.208923,270.237152 
	C337.208923,309.347717 337.208923,348.072876 337.208923,386.709106 
	C364.992340,386.709106 392.387085,386.709106 420.000000,386.709106 
	C420.000000,376.113129 420.000000,365.806549 420.000031,354.500000 
M305.500000,493.000000 
	C320.412567,492.666687 335.331207,492.495056 350.235291,491.935822 
	C358.404266,491.629333 366.641815,491.228851 374.685486,489.890930 
	C393.746979,486.720551 406.557220,475.380920 412.819611,457.375458 
	C415.862671,448.626221 417.410736,439.278534 418.858521,430.079468 
	C419.887146,423.543518 419.616394,416.803070 419.918488,410.307068 
	C350.941772,410.307068 282.559845,410.307068 214.298615,410.307068 
	C214.298615,438.012299 214.298615,465.409515 214.298615,493.000000 
	C244.564545,493.000000 274.532257,493.000000 305.500000,493.000000 
M145.500000,387.000000 
	C161.592438,387.000000 177.684875,387.000000 193.742599,387.000000 
	C193.742599,320.048065 193.742599,253.660690 193.742599,186.534348 
	C182.653748,187.371552 171.848831,187.973129 161.091583,189.050674 
	C145.734329,190.589020 132.867844,196.889130 124.018616,209.999008 
	C114.118652,224.665543 111.490097,241.610123 111.216965,258.555695 
	C110.551178,299.861725 110.997688,341.185760 111.009697,382.502533 
	C111.010109,383.937744 111.153542,385.372864 111.240585,387.000000 
	C122.551430,387.000000 133.525711,387.000000 145.500000,387.000000 
M743.000000,348.500000 
	C743.000000,332.041260 743.000000,315.582489 743.000000,298.450409 
	C728.562927,296.942657 714.499268,295.102814 700.375793,294.149139 
	C692.855164,293.641296 685.175903,294.207153 677.666260,295.106812 
	C666.109131,296.491425 655.624817,300.572876 646.763672,308.625000 
	C635.738098,318.643951 632.291870,331.842743 631.164001,345.695190 
	C630.101624,358.743927 631.204712,371.738403 635.912537,384.282074 
	C639.780884,394.588959 646.551147,402.457977 656.240234,406.811890 
	C674.466187,415.001862 693.217529,413.599060 712.212646,407.561890 
	C711.942688,409.668823 711.922363,411.991547 711.322998,414.153656 
	C707.508545,427.912048 698.127747,432.001709 685.160522,432.879700 
	C670.263428,433.888397 655.592834,431.791382 641.000610,426.888184 
	C641.000610,434.688080 640.865723,442.163910 641.140503,449.624634 
	C641.183594,450.793884 642.929504,452.649963 644.155884,452.906281 
	C653.157776,454.787537 662.182434,457.314972 671.288574,457.739899 
	C681.388184,458.211212 691.666809,457.279572 701.718079,455.883545 
	C727.690735,452.276245 742.841553,434.526520 742.980042,407.956207 
	C743.081604,388.471283 743.000000,368.985443 743.000000,348.500000 
M804.840027,341.001923 
	C801.186829,341.668091 797.477600,342.117523 793.891418,343.043121 
	C784.931274,345.355682 776.664185,348.400116 770.659119,356.502747 
	C763.800781,365.756622 764.096924,376.076569 765.345642,386.123199 
	C766.805969,397.872711 773.644226,406.906647 785.234680,410.928528 
	C794.741760,414.227448 804.469116,415.641144 814.834412,414.285492 
	C825.014343,412.954041 834.063599,409.696075 843.153381,403.962189 
	C849.331421,414.972351 859.215515,417.121033 870.999939,414.313507 
	C870.999939,385.870880 871.221802,357.391937 870.862671,328.920349 
	C870.757019,320.543915 867.404480,312.807709 861.247681,306.810333 
	C851.469604,297.285461 838.701172,295.127747 825.982788,294.165466 
	C809.578552,292.924286 793.339661,295.426392 777.343567,299.121063 
	C776.049988,299.419830 774.193604,301.200348 774.149048,302.352295 
	C773.859924,309.820374 774.000793,317.305115 774.000793,325.027588 
	C789.755615,321.220459 805.335876,318.125244 821.203979,319.145905 
	C836.667847,320.140625 842.557312,326.852295 839.492981,341.724945 
	C828.113525,341.480255 816.948792,341.240173 804.840027,341.001923 
M1091.024658,388.261719 
	C1095.477295,393.186493 1099.375977,398.804108 1104.494263,402.896393 
	C1116.276611,412.316711 1130.739502,414.638977 1145.180298,414.765747 
	C1158.080078,414.879059 1171.003418,413.064758 1183.896240,411.882111 
	C1185.007446,411.780182 1186.828003,410.065216 1186.861450,409.051514 
	C1187.112793,401.424622 1186.998535,393.785706 1186.998535,386.715576 
	C1178.394775,387.498871 1170.050293,387.737030 1161.901855,389.125305 
	C1150.303833,391.101349 1139.222168,389.590363 1128.272461,385.969360 
	C1119.401855,383.035950 1114.075195,374.228363 1115.577271,365.023071 
	C1141.163574,365.023071 1166.788086,365.023071 1193.063843,365.023071 
	C1194.924561,349.518311 1195.024170,334.455322 1188.492310,319.961792 
	C1183.962280,309.909821 1176.765381,302.797272 1166.378540,298.710358 
	C1151.080322,292.690979 1135.362793,292.399902 1119.822144,296.242249 
	C1103.370972,300.309753 1092.152222,310.771423 1086.935059,327.393921 
	C1083.093750,339.633301 1083.338501,352.190399 1084.328369,364.545746 
	C1084.951416,372.322510 1088.640015,379.853729 1091.024658,388.261719 
M523.715149,304.024963 
	C516.889221,309.615814 511.772491,316.393188 508.971954,324.856537 
	C503.478912,341.456848 503.518555,358.368988 507.186462,375.154541 
	C509.771942,386.986633 516.065186,396.978912 526.435364,403.923859 
	C538.587830,412.062408 552.443542,414.749542 566.571838,414.782623 
	C579.312927,414.812469 592.065796,413.078552 604.789001,411.865631 
	C605.950317,411.754944 607.813354,409.806580 607.856262,408.655853 
	C608.134705,401.187592 607.999146,393.703857 607.999146,386.167908 
	C606.092346,386.483093 604.536926,386.818604 602.963623,386.986786 
	C595.821289,387.750458 588.624146,388.151642 581.539551,389.271149 
	C569.621277,391.154449 558.119751,389.724792 547.230713,384.920349 
	C538.837830,381.217224 535.327026,373.952057 536.504578,364.956970 
	C562.227112,364.956970 587.998230,364.956970 613.974854,364.956970 
	C615.876099,352.522675 615.927002,340.384644 612.723206,328.572815 
	C608.215271,311.953308 597.941895,300.423615 580.693115,296.367218 
	C570.463745,293.961548 560.159729,293.265320 549.548157,294.800171 
	C540.387329,296.125153 531.966125,298.558380 523.715149,304.024963 
M179.340240,492.000000 
	C184.148575,492.407166 188.956909,492.814331 193.702393,493.216187 
	C193.702393,464.972351 193.702393,437.588318 193.702393,410.274689 
	C166.018890,410.274689 138.633850,410.274689 109.766350,410.274689 
	C111.593613,423.945343 112.397095,437.379150 115.369423,450.314606 
	C119.082382,466.473236 127.979553,479.623718 143.966019,486.405396 
	C154.912369,491.049011 166.557892,492.278595 179.340240,492.000000 
M1022.608276,409.070282 
	C1027.559326,410.755554 1032.433716,413.547729 1037.477417,413.897583 
	C1048.245605,414.644592 1059.101685,414.126129 1069.643555,414.126129 
	C1069.643555,406.205231 1069.643555,398.131073 1069.643555,389.999969 
	C1065.625488,389.999969 1061.962036,390.070526 1058.302124,389.986176 
	C1048.817383,389.767548 1044.009155,384.842407 1044.003174,375.389099 
	C1043.992065,358.067780 1043.994385,340.746429 1044.010254,323.425110 
	C1044.011475,321.996277 1044.158081,320.567566 1044.257446,318.769897 
	C1053.032715,318.769897 1061.441284,318.769897 1069.689087,318.769897 
	C1069.689087,310.301666 1069.689087,302.231323 1069.689087,293.965698 
	C1059.749878,293.965698 1050.119507,293.965698 1040.354614,293.965698 
	C1038.806885,287.611786 1037.297852,281.416779 1035.791870,275.233887 
	C1028.165161,275.233887 1020.743591,275.233887 1013.000000,275.233887 
	C1013.000000,277.093353 1013.000000,278.723236 1013.000000,280.353149 
	C1013.000000,315.828583 1012.927246,351.304230 1013.053650,386.779236 
	C1013.083435,395.136780 1015.796387,402.656708 1022.608276,409.070282 
M452.000000,338.500000 
	C452.000000,363.927246 452.000000,389.354462 452.000000,414.711487 
	C462.645599,414.711487 472.717834,414.711487 482.714539,414.711487 
	C482.714539,360.022156 482.714539,305.621765 482.714539,251.288483 
	C472.354279,251.288483 462.282074,251.288483 452.000000,251.288483 
	C452.000000,280.217621 452.000000,308.858795 452.000000,338.500000 
M898.000000,329.500000 
	C898.000000,357.926819 898.000000,386.353638 898.000000,414.711914 
	C908.644775,414.711914 918.716980,414.711914 928.714966,414.711914 
	C928.714966,360.022949 928.714966,305.622559 928.714966,251.288071 
	C918.355286,251.288071 908.283081,251.288071 898.000000,251.288071 
	C898.000000,277.217010 898.000000,302.858521 898.000000,329.500000 
M969.506714,294.000000 
	C965.071594,294.000000 960.636475,294.000000 956.283752,294.000000 
	C956.283752,334.640137 956.283752,374.707855 956.283752,414.713501 
	C966.641907,414.713501 976.713928,414.713501 986.715576,414.713501 
	C986.715576,374.358582 986.715576,334.290833 986.715576,294.000000 
	C981.122986,294.000000 975.812927,294.000000 969.506714,294.000000 
M959.651794,251.000000 
	C958.046326,251.185104 955.884827,250.127243 955.952332,253.360443 
	C956.107544,260.801331 956.001465,268.247711 956.001465,275.759888 
	C966.547791,275.759888 976.618286,275.759888 986.757080,275.759888 
	C986.757080,267.446808 986.757080,259.376007 986.757080,251.000000 
	C977.885986,251.000000 969.254333,251.000000 959.651794,251.000000 
M1025.000000,441.682587 
	C1025.000000,439.942505 1025.000000,438.202454 1025.000000,435.221252 
	C1027.357910,438.542542 1029.037720,440.813965 1030.616943,443.153320 
	C1033.819580,447.897614 1033.797119,447.912750 1037.000000,447.267334 
	C1037.000000,442.804382 1037.119995,438.308044 1036.924805,433.825409 
	C1036.868652,432.536438 1035.903809,431.287048 1035.355713,430.019501 
	C1034.903809,431.218842 1034.153076,432.395813 1034.061401,433.622101 
	C1033.862427,436.284027 1034.000000,438.971130 1034.000000,441.938843 
	C1029.105713,438.391663 1029.057251,431.054688 1022.000000,429.672272 
	C1022.000000,435.169220 1021.904602,439.826019 1022.065979,444.473846 
	C1022.107117,445.659546 1022.962097,446.817017 1023.443115,447.987457 
	C1023.962036,446.853058 1024.566040,445.747498 1024.964600,444.572296 
	C1025.167236,443.974640 1025.000000,443.251556 1025.000000,441.682587 
M1133.016235,437.016449 
	C1135.938721,428.264984 1140.748413,435.325043 1144.977783,436.334534 
	C1143.000732,430.090637 1140.568970,428.695801 1134.994751,430.020020 
	C1131.498901,430.850494 1129.030151,435.970337 1130.080811,441.940796 
	C1131.804688,451.736847 1139.059448,447.901398 1144.730957,447.471313 
	C1144.730957,444.365112 1144.730957,441.272186 1144.730957,438.216553 
	C1142.355347,438.216553 1140.251709,438.216553 1138.148193,438.216553 
	C1137.961304,438.651215 1137.774414,439.085876 1137.587402,439.520538 
	C1139.018066,440.292908 1140.448608,441.065308 1142.893799,442.385498 
	C1140.641235,443.748260 1137.928345,446.212585 1137.139282,445.702301 
	C1135.273193,444.495270 1134.263428,441.908051 1133.042480,439.800568 
	C1132.754517,439.303528 1133.000732,438.496979 1133.016235,437.016449 
M1098.000000,432.758301 
	C1097.432617,431.846680 1096.865234,430.935059 1096.297852,430.023438 
	C1095.865234,430.906525 1095.107666,431.772308 1095.059448,432.675873 
	C1094.901245,435.647797 1095.000122,438.633453 1095.000122,442.752838 
	C1087.230469,430.448486 1087.230469,430.448486 1084.256104,430.560364 
	C1084.256104,436.337555 1084.256104,442.108795 1084.256104,449.039368 
	C1089.088989,445.020294 1085.582275,440.026031 1087.360229,436.531342 
	C1091.315918,439.862152 1091.828003,446.237030 1098.000000,448.403076 
	C1098.000000,443.006287 1098.000000,438.358093 1098.000000,432.758301 
M1148.000000,443.333466 
	C1148.000000,444.874268 1148.000000,446.415039 1148.000000,448.518036 
	C1152.908203,447.033936 1149.814331,443.301788 1151.430908,441.262054 
	C1154.518311,440.368683 1156.397461,441.087158 1157.160156,444.753998 
	C1157.463135,446.210571 1159.428223,447.321381 1160.636475,448.589600 
	C1160.974121,448.255188 1161.311646,447.920807 1161.649292,447.586395 
	C1160.224976,444.151917 1157.769653,441.224335 1160.833618,436.929138 
	C1163.240479,433.555084 1160.791748,430.234009 1156.558350,430.026154 
	C1153.799438,429.890717 1151.028564,430.000641 1148.580078,430.000641 
	C1148.206421,430.642731 1148.058960,430.778351 1148.057861,430.915100 
	C1148.029541,434.733734 1148.015991,438.552490 1148.000000,443.333466 
M939.925354,430.001007 
	C935.069824,430.782867 934.709412,435.011749 934.127808,438.443665 
	C933.107727,444.462708 938.798767,450.096649 943.845581,448.625458 
	C949.304077,447.034302 951.173523,443.209961 949.971619,435.629639 
	C949.122803,430.276367 945.151855,429.733337 939.925354,430.001007 
M869.999817,434.486542 
	C869.464050,430.071381 868.867126,429.115173 857.214478,430.579285 
	C857.214478,436.314362 857.214478,442.049438 857.214478,447.784515 
	C857.752991,447.943115 858.291565,448.101715 858.830078,448.260315 
	C859.418335,445.973755 860.006592,443.687195 860.653503,441.172485 
	C861.791199,441.172485 863.214844,441.172485 863.786499,441.172485 
	C865.597534,443.925598 867.087219,446.190308 868.576965,448.455017 
	C869.070374,448.139526 869.563782,447.824036 870.057190,447.508575 
	C869.187561,445.184601 868.317993,442.860626 867.591187,440.918488 
	C868.423706,438.980347 869.211853,437.145447 869.999817,434.486542 
M929.531677,442.021545 
	C930.019348,440.839783 930.325745,439.535217 931.027954,438.498749 
	C933.356812,435.061401 931.993591,430.413605 928.286011,430.064362 
	C925.245911,429.777954 922.157349,430.006012 919.277588,430.006012 
	C919.277588,436.445099 919.277588,442.190826 919.277588,447.936554 
	C919.849365,448.067474 920.421204,448.198395 920.992981,448.329315 
	C921.495422,445.933380 921.997803,443.537476 922.449707,441.382446 
	C929.154236,437.981537 925.865540,449.686890 932.177002,447.645416 
	C931.382751,445.855042 930.675354,444.260498 929.531677,442.021545 
M847.398010,430.000000 
	C840.377441,430.147491 838.946960,431.831940 838.999939,439.889404 
	C839.036011,445.379761 841.752808,448.771729 846.286316,448.986877 
	C849.621399,449.145142 853.658142,445.970367 853.999268,442.920990 
	C854.950745,434.415466 853.474060,431.097076 847.398010,430.000000 
M983.097900,447.619629 
	C984.303833,448.058289 985.479248,448.633179 986.721069,448.911560 
	C991.634583,450.012970 996.488342,445.916168 994.741882,441.615814 
	C993.896484,439.533997 990.397644,438.548737 988.135315,437.015137 
	C987.051392,436.280365 985.891418,435.547211 985.113953,434.543640 
	C984.902710,434.270996 985.905334,432.383667 986.441772,432.339417 
	C987.767029,432.230133 989.206909,432.594543 990.484985,433.075836 
	C991.891052,433.605255 993.167786,434.478210 995.260498,435.613647 
	C993.897522,429.481384 989.983398,429.418213 986.590210,430.200378 
	C984.505981,430.680817 981.883240,432.865875 981.384277,434.776855 
	C981.045837,436.073486 983.751282,438.507751 985.520447,439.888702 
	C986.661316,440.779236 988.680603,440.452362 990.096130,441.117889 
	C990.937927,441.513672 992.033691,442.987213 991.837952,443.599823 
	C991.529297,444.565277 990.236206,445.850189 989.347595,445.859711 
	C987.668274,445.877747 985.960327,445.146606 984.303223,444.607239 
	C983.298523,444.280243 982.366699,443.728912 981.402161,443.278381 
	C981.782288,444.527039 982.162476,445.775726 983.097900,447.619629 
M1018.989563,443.824249 
	C1018.992249,441.174774 1019.559265,438.356079 1018.830505,435.925964 
	C1018.173035,433.733795 1016.226990,430.472687 1014.619141,430.333130 
	C1011.556274,430.067322 1007.613892,430.837067 1005.345520,432.738373 
	C1002.266907,435.318848 1003.683411,444.758789 1006.645325,447.140350 
	C1010.337341,450.108917 1014.179077,449.327850 1018.989563,443.824249 
M779.000488,433.485413 
	C777.339600,438.204315 775.678650,442.923187 773.548340,448.975739 
	C777.111877,446.426239 779.533325,443.330536 781.893188,443.376831 
	C784.411682,443.426147 786.872009,446.443298 790.346497,448.849670 
	C788.016846,442.622467 786.220581,437.695221 784.308960,432.813141 
	C783.908875,431.791473 783.083252,430.936432 782.453735,430.004639 
	C781.315491,430.891144 780.177246,431.777649 779.000488,433.485413 
M792.002502,434.626678 
	C791.332275,438.113251 793.639221,439.116821 796.308716,440.028595 
	C798.639404,440.824646 800.864014,441.931458 803.126892,442.897308 
	C798.849243,449.754242 795.268921,443.460175 791.263367,442.670502 
	C793.646057,448.501923 799.493469,450.778168 803.639771,447.585541 
	C804.950562,446.576294 806.041992,444.129150 805.825989,442.530182 
	C805.377075,439.206451 802.605347,438.180145 799.413452,437.632812 
	C797.820007,437.359619 796.470947,435.661377 795.011292,434.607666 
	C795.713623,433.870941 796.412720,432.524994 797.119019,432.521301 
	C798.706970,432.512909 800.306824,433.138885 801.885254,433.568024 
	C802.867004,433.835022 803.818237,434.214050 804.783203,434.542755 
	C804.516174,433.516235 804.541687,432.250275 803.931458,431.504700 
	C801.311035,428.303284 794.619812,429.654022 792.002502,434.626678 
M1043.001221,445.411163 
	C1045.694580,441.864594 1049.187622,441.991028 1051.067383,445.529297 
	C1051.677856,446.678528 1053.026245,447.435730 1054.037231,448.372192 
	C1052.935059,442.345734 1051.020630,437.256409 1048.998535,432.210175 
	C1048.664917,431.377686 1047.656982,430.034485 1047.310669,430.134888 
	C1046.282593,430.433014 1044.935547,431.141693 1044.589233,432.031006 
	C1042.591553,437.160858 1040.846436,442.389130 1039.015869,447.584045 
	C1039.261963,447.828857 1039.508057,448.073639 1039.754150,448.318451 
	C1040.826172,447.621185 1041.898071,446.923920 1043.001221,445.411163 
M832.317871,441.874054 
	C832.464478,442.840637 832.611145,443.807220 832.757751,444.773865 
	C830.811951,444.986511 828.787354,445.621460 826.945374,445.277740 
	C825.480408,445.004333 824.238525,443.535004 822.243225,442.138641 
	C823.018677,447.413055 826.395447,448.620392 829.603821,448.839600 
	C833.015869,449.072723 836.994629,447.760742 836.699097,443.572876 
	C836.559753,441.598694 833.367249,439.738220 831.370728,438.047546 
	C830.585510,437.382629 829.186646,437.492889 828.254517,436.936401 
	C827.379700,436.414154 826.025635,435.268982 826.169617,434.768036 
	C826.453308,433.781250 827.647400,432.343842 828.431152,432.364655 
	C829.962036,432.405334 831.463318,433.338776 832.989502,433.865845 
	C833.865479,434.168335 834.766357,434.398743 835.656006,434.661591 
	C835.591003,433.759796 835.872803,432.571930 835.403809,432.003510 
	C832.731201,428.764465 829.095825,429.481293 825.988770,430.743317 
	C824.576599,431.316895 823.377502,433.819122 823.206177,435.557404 
	C823.089172,436.744659 824.662781,438.548004 825.938110,439.313263 
	C827.669495,440.352234 829.838135,440.662415 832.317871,441.874054 
M884.746643,443.002167 
	C887.686707,442.884918 890.725464,442.410126 891.170105,446.811951 
	C891.230469,447.409668 893.312561,447.803162 894.847290,448.456787 
	C892.780823,442.650818 891.018188,437.526733 889.099487,432.461731 
	C888.742859,431.520172 887.674866,430.097809 887.082275,430.166504 
	C886.121826,430.277863 884.831360,431.261963 884.468140,432.186951 
	C882.474487,437.263885 880.720642,442.434937 878.884460,447.573700 
	C879.449524,447.880554 880.014587,448.187439 880.579651,448.494293 
	C881.682678,446.672699 882.785706,444.851074 884.746643,443.002167 
M1176.040527,447.349213 
	C1176.974121,447.527039 1177.907715,447.704865 1179.149658,447.941437 
	C1177.278198,442.486908 1175.754395,437.617340 1173.881348,432.886108 
	C1173.410767,431.697388 1171.819946,430.952301 1170.743896,430.003326 
	C1169.992920,431.016174 1168.973145,431.925842 1168.537720,433.059814 
	C1166.684326,437.886658 1165.003662,442.779877 1163.260010,447.648895 
	C1163.650635,447.941467 1164.041382,448.234039 1164.432007,448.526642 
	C1165.629150,447.014862 1166.545654,445.019409 1168.097534,444.119415 
	C1169.859253,443.097687 1172.189331,443.056244 1174.219238,442.600586 
	C1174.950806,444.254883 1175.451050,445.386139 1176.040527,447.349213 
M913.707153,440.809692 
	C916.037292,438.790131 918.462585,436.420746 916.588745,433.237976 
	C913.608826,428.176483 908.626160,430.234039 904.239746,430.198212 
	C904.239746,436.346558 904.239746,442.108856 904.239746,447.871124 
	C904.778748,448.020142 905.317749,448.169159 905.856750,448.318146 
	C906.423950,445.966461 906.991150,443.614807 907.624878,440.987244 
	C909.267212,440.987244 911.069702,440.987244 913.707153,440.809692 
M811.589844,448.000000 
	C814.391602,448.000000 817.193359,448.000000 819.995117,448.000000 
	C819.997192,447.416412 819.999207,446.832825 820.001221,446.249237 
	C817.058411,446.102020 814.115601,445.954803 811.257935,445.811859 
	C811.257935,443.723907 811.257935,441.982574 811.257935,440.266418 
	C814.035156,440.008209 816.540283,439.775299 819.045349,439.542389 
	C819.003845,439.057373 818.962402,438.572327 818.920959,438.087280 
	C816.382324,438.087280 813.843750,438.087280 811.209229,438.087280 
	C811.209229,435.820953 811.209229,434.082306 811.209229,432.261169 
	C814.274170,432.027679 817.151245,431.808502 820.028320,431.589294 
	C819.990173,431.184235 819.952026,430.779144 819.913940,430.374084 
	C815.975891,430.374084 812.037903,430.374084 808.000183,430.374084 
	C808.000183,435.514221 807.854004,440.334564 808.119568,445.132080 
	C808.174866,446.131226 809.753845,447.046021 811.589844,448.000000 
M974.451050,445.999969 
	C973.014832,445.925018 971.578613,445.850098 969.952087,445.765198 
	C970.044983,443.669830 970.122314,441.925201 970.195374,440.277649 
	C973.067932,439.994232 975.561646,439.748169 978.055359,439.502106 
	C978.017944,439.009979 977.980469,438.517822 977.942993,438.025696 
	C975.372009,438.025696 972.801086,438.025696 970.237610,438.025696 
	C970.237610,435.767639 970.237610,434.028809 970.237610,432.268707 
	C973.324280,432.016052 976.177612,431.782471 979.030945,431.548920 
	C978.992981,431.144012 978.955078,430.739136 978.917175,430.334229 
	C975.076294,430.334229 971.235474,430.334229 967.365601,430.334229 
	C967.365601,436.256683 967.365601,442.103119 967.365601,447.420654 
	C971.487732,447.420654 975.226746,447.420654 978.965698,447.420654 
	C978.969299,447.075470 978.972839,446.730316 978.976379,446.385132 
	C977.777344,446.256775 976.578308,446.128387 974.451050,445.999969 
M1124.250488,430.000122 
	C1121.634766,430.000122 1119.019165,430.000122 1116.348755,430.000122 
	C1116.348755,436.232056 1116.348755,442.083984 1116.348755,447.439758 
	C1120.460327,447.439758 1124.210083,447.439758 1127.959839,447.439758 
	C1127.969482,447.060608 1127.979126,446.681427 1127.988770,446.302277 
	C1125.025391,446.111267 1122.062012,445.920258 1118.948364,445.719574 
	C1119.043945,443.646912 1119.124390,441.901337 1119.203247,440.190308 
	C1122.057495,440.013763 1124.528687,439.860931 1126.999878,439.708069 
	C1127.003906,439.222992 1127.008057,438.737915 1127.012207,438.252838 
	C1124.410278,438.105469 1121.808350,437.958099 1119.249268,437.813171 
	C1119.249268,435.743103 1119.249268,434.001678 1119.249268,431.695862 
	C1121.984375,431.695862 1124.486084,431.695862 1126.987671,431.695862 
	C1127.021240,431.357361 1127.054688,431.018860 1127.088135,430.680389 
	C1126.452026,430.454376 1125.815796,430.228394 1124.250488,430.000122 
M1105.997070,434.771729 
	C1105.998047,438.259399 1105.881348,441.753693 1106.077515,445.230377 
	C1106.130737,446.173462 1107.128418,447.063263 1107.692505,447.977509 
	C1108.128174,447.100739 1108.909180,446.235962 1108.940063,445.345123 
	C1109.077393,441.388489 1108.999634,437.424377 1108.999634,433.736542 
	C1111.020508,433.010315 1112.698242,432.407440 1114.375854,431.804535 
	C1114.214844,431.282410 1114.053711,430.760254 1113.892578,430.238129 
	C1109.320068,430.238129 1104.747681,430.238129 1098.677002,430.238129 
	C1100.375244,431.707703 1101.023438,432.598328 1101.888306,432.939209 
	C1103.163818,433.441956 1104.593384,433.553314 1105.997070,434.771729 
M957.654114,437.996216 
	C956.908203,436.220734 956.162292,434.445251 955.279175,432.343292 
	C958.953247,432.029205 961.494080,431.812012 964.034851,431.594788 
	C963.996338,431.186188 963.957825,430.777588 963.919312,430.368988 
	C960.429321,430.368988 956.939392,430.368988 953.300415,430.368988 
	C953.300415,436.212646 953.300415,442.074585 953.300415,447.936523 
	C953.874878,448.062317 954.449341,448.188080 955.023804,448.313873 
	C955.537415,445.594299 956.050964,442.874725 956.565063,440.152466 
	C959.057983,440.013214 961.531982,439.875000 964.006042,439.736755 
	C964.002991,439.157745 964.000000,438.578705 963.996948,437.999695 
	C962.186707,437.999695 960.376404,437.999695 957.654114,437.996216 
M1184.000000,434.652893 
	C1183.999878,433.990448 1184.203247,433.235901 1183.954590,432.685944 
	C1183.523682,431.733337 1182.812622,430.907471 1182.219116,430.028412 
	C1181.812744,430.929565 1181.075317,431.823273 1181.054810,432.733185 
	C1180.940308,437.791473 1181.000000,442.853729 1181.000000,447.483856 
	C1185.434448,447.483856 1189.194824,447.483856 1192.955078,447.483856 
	C1192.965332,447.061981 1192.975586,446.640137 1192.985840,446.218262 
	C1190.065430,446.218262 1187.144897,446.218262 1184.000000,446.218262 
	C1184.000000,442.185577 1184.000000,438.899292 1184.000000,434.652893 
M1059.997314,431.806732 
	C1059.450195,431.211151 1058.903076,430.615601 1058.355835,430.020050 
	C1057.904541,430.713409 1057.076782,431.398804 1057.062012,432.101410 
	C1056.951416,437.334351 1057.001953,442.570709 1057.001953,447.301453 
	C1061.070312,447.301453 1064.550903,447.301453 1068.031494,447.301453 
	C1067.996338,446.896179 1067.961304,446.490875 1067.926147,446.085602 
	C1065.394043,446.085602 1062.861816,446.085602 1060.000000,446.085602 
	C1060.000000,441.303192 1060.000000,437.029175 1059.997314,431.806732 
M1080.000000,443.336060 
	C1079.999268,439.536072 1080.069824,435.733490 1079.929932,431.938599 
	C1079.905640,431.279144 1078.992554,430.652466 1078.489990,430.010681 
	C1077.994019,430.659241 1077.090332,431.294647 1077.068970,431.958496 
	C1076.935913,436.084656 1076.905029,440.220764 1077.059082,444.345398 
	C1077.104736,445.568878 1077.855713,446.765961 1078.283569,447.975159 
	C1078.855713,446.746948 1079.427856,445.518738 1080.000000,443.336060 
M998.000000,434.663940 
	C998.000793,438.463898 997.930298,442.266479 998.070190,446.061279 
	C998.094421,446.720764 999.007507,447.347473 999.510071,447.989349 
	C1000.005981,447.340790 1000.909790,446.705383 1000.931213,446.041534 
	C1001.064209,441.915375 1001.095093,437.779327 1000.941040,433.654694 
	C1000.895386,432.431213 1000.144348,431.234070 999.716614,430.024872 
	C999.144409,431.253082 998.572205,432.481262 998.000000,434.663940 
M874.002686,431.807709 
	C874.002197,436.435120 873.926636,441.064911 874.074646,445.687561 
	C874.099670,446.467957 875.088867,447.217499 875.632568,447.981323 
	C876.087708,447.294220 876.919312,446.616699 876.937073,445.918457 
	C877.054810,441.294037 877.053406,436.664276 876.975464,432.038177 
	C876.934143,429.581512 875.861267,429.147888 874.002686,431.807709 
z"/>
<path fill="#F4F4F4" opacity="1.000000" stroke="none" 
	d="
M420.000000,355.000000 
	C420.000000,365.806549 420.000000,376.113129 420.000000,386.709106 
	C392.387085,386.709106 364.992340,386.709106 337.208923,386.709106 
	C337.208923,348.072876 337.208923,309.347717 337.208923,270.237152 
	C296.100800,270.237152 255.376480,270.237152 214.326538,270.237152 
	C214.326538,242.459366 214.326538,215.064087 214.326538,187.226334 
	C215.531296,187.159088 216.956238,187.010468 218.381195,187.010040 
	C260.692871,186.997681 303.007599,186.720764 345.314209,187.183838 
	C356.805359,187.309616 368.521271,188.618637 379.692841,191.254501 
	C397.559235,195.470001 408.390625,208.063904 413.913422,225.170120 
	C417.372131,235.882996 418.982391,246.954102 419.049866,258.289917 
	C419.240692,290.360687 419.666687,322.430084 420.000000,355.000000 
z"/>
<path fill="#FFFFFF" opacity="1.000000" stroke="none" 
	d="
M305.000000,493.000000 
	C274.532257,493.000000 244.564545,493.000000 214.298615,493.000000 
	C214.298615,465.409515 214.298615,438.012299 214.298615,410.307068 
	C282.559845,410.307068 350.941772,410.307068 419.918488,410.307068 
	C419.616394,416.803070 419.887146,423.543518 418.858521,430.079468 
	C417.410736,439.278534 415.862671,448.626221 412.819611,457.375458 
	C406.557220,475.380920 393.746979,486.720551 374.685486,489.890930 
	C366.641815,491.228851 358.404266,491.629333 350.235291,491.935822 
	C335.331207,492.495056 320.412567,492.666687 305.000000,493.000000 
z"/>
<path fill="#FFFFFF" opacity="1.000000" stroke="none" 
	d="
M145.000000,387.000000 
	C133.525711,387.000000 122.551430,387.000000 111.240585,387.000000 
	C111.153542,385.372864 111.010109,383.937744 111.009697,382.502533 
	C110.997688,341.185760 110.551178,299.861725 111.216965,258.555695 
	C111.490097,241.610123 114.118652,224.665543 124.018616,209.999008 
	C132.867844,196.889130 145.734329,190.589020 161.091583,189.050674 
	C171.848831,187.973129 182.653748,187.371552 193.742599,186.534348 
	C193.742599,253.660690 193.742599,320.048065 193.742599,387.000000 
	C177.684875,387.000000 161.592438,387.000000 145.000000,387.000000 
z"/>
<path fill="#FFFFFF" opacity="1.000000" stroke="none" 
	d="
M743.000000,349.000000 
	C743.000000,368.985443 743.081604,388.471283 742.980042,407.956207 
	C742.841553,434.526520 727.690735,452.276245 701.718079,455.883545 
	C691.666809,457.279572 681.388184,458.211212 671.288574,457.739899 
	C662.182434,457.314972 653.157776,454.787537 644.155884,452.906281 
	C642.929504,452.649963 641.183594,450.793884 641.140503,449.624634 
	C640.865723,442.163910 641.000610,434.688080 641.000610,426.888184 
	C655.592834,431.791382 670.263428,433.888397 685.160522,432.879700 
	C698.127747,432.001709 707.508545,427.912048 711.322998,414.153656 
	C711.922363,411.991547 711.942688,409.668823 712.212646,407.561890 
	C693.217529,413.599060 674.466187,415.001862 656.240234,406.811890 
	C646.551147,402.457977 639.780884,394.588959 635.912537,384.282074 
	C631.204712,371.738403 630.101624,358.743927 631.164001,345.695190 
	C632.291870,331.842743 635.738098,318.643951 646.763672,308.625000 
	C655.624817,300.572876 666.109131,296.491425 677.666260,295.106812 
	C685.175903,294.207153 692.855164,293.641296 700.375793,294.149139 
	C714.499268,295.102814 728.562927,296.942657 743.000000,298.450409 
	C743.000000,315.582489 743.000000,332.041260 743.000000,349.000000 
M675.086426,323.390015 
	C672.064148,326.515778 668.307190,329.208832 666.161987,332.851166 
	C660.480286,342.497589 660.834717,353.415527 662.212341,363.934113 
	C663.608459,374.593994 669.347900,383.283813 680.470642,385.591858 
	C690.691467,387.712708 700.920105,385.587189 710.447083,381.108734 
	C711.254761,380.729095 711.930115,379.145844 711.935303,378.118011 
	C712.024902,360.294250 712.047791,342.469452 711.889771,324.646637 
	C711.879333,323.476685 710.436768,321.459869 709.418213,321.290161 
	C698.102905,319.404877 686.744263,317.887268 675.086426,323.390015 
z"/>
<path fill="#FFFFFF" opacity="1.000000" stroke="none" 
	d="
M805.312012,341.001007 
	C816.948792,341.240173 828.113525,341.480255 839.492981,341.724945 
	C842.557312,326.852295 836.667847,320.140625 821.203979,319.145905 
	C805.335876,318.125244 789.755615,321.220459 774.000793,325.027588 
	C774.000793,317.305115 773.859924,309.820374 774.149048,302.352295 
	C774.193604,301.200348 776.049988,299.419830 777.343567,299.121063 
	C793.339661,295.426392 809.578552,292.924286 825.982788,294.165466 
	C838.701172,295.127747 851.469604,297.285461 861.247681,306.810333 
	C867.404480,312.807709 870.757019,320.543915 870.862671,328.920349 
	C871.221802,357.391937 870.999939,385.870880 870.999939,414.313507 
	C859.215515,417.121033 849.331421,414.972351 843.153381,403.962189 
	C834.063599,409.696075 825.014343,412.954041 814.834412,414.285492 
	C804.469116,415.641144 794.741760,414.227448 785.234680,410.928528 
	C773.644226,406.906647 766.805969,397.872711 765.345642,386.123199 
	C764.096924,376.076569 763.800781,365.756622 770.659119,356.502747 
	C776.664185,348.400116 784.931274,345.355682 793.891418,343.043121 
	C797.477600,342.117523 801.186829,341.668091 805.312012,341.001007 
M839.223267,383.206909 
	C839.583496,376.879333 839.943665,370.551758 840.290344,364.461945 
	C837.574829,364.000244 835.678772,363.528839 833.757507,363.376404 
	C824.238892,362.621216 814.616455,360.273682 805.293274,364.105316 
	C802.610596,365.207794 799.500183,366.921204 798.122437,369.259735 
	C792.347290,379.061951 797.247925,391.414490 811.337769,392.030396 
	C821.452271,392.472565 830.330933,389.087769 839.223267,383.206909 
z"/>
<path fill="#FFFFFF" opacity="1.000000" stroke="none" 
	d="
M1090.989014,387.878418 
	C1088.640015,379.853729 1084.951416,372.322510 1084.328369,364.545746 
	C1083.338501,352.190399 1083.093750,339.633301 1086.935059,327.393921 
	C1092.152222,310.771423 1103.370972,300.309753 1119.822144,296.242249 
	C1135.362793,292.399902 1151.080322,292.690979 1166.378540,298.710358 
	C1176.765381,302.797272 1183.962280,309.909821 1188.492310,319.961792 
	C1195.024170,334.455322 1194.924561,349.518311 1193.063843,365.023071 
	C1166.788086,365.023071 1141.163574,365.023071 1115.577271,365.023071 
	C1114.075195,374.228363 1119.401855,383.035950 1128.272461,385.969360 
	C1139.222168,389.590363 1150.303833,391.101349 1161.901855,389.125305 
	C1170.050293,387.737030 1178.394775,387.498871 1186.998535,386.715576 
	C1186.998535,393.785706 1187.112793,401.424622 1186.861450,409.051514 
	C1186.828003,410.065216 1185.007446,411.780182 1183.896240,411.882111 
	C1171.003418,413.064758 1158.080078,414.879059 1145.180298,414.765747 
	C1130.739502,414.638977 1116.276611,412.316711 1104.494263,402.896393 
	C1099.375977,398.804108 1095.477295,393.186493 1090.989014,387.878418 
M1115.995239,336.636475 
	C1115.575562,338.941956 1115.155762,341.247437 1114.690796,343.801270 
	C1131.483032,343.801270 1147.569824,343.801270 1163.636719,343.801270 
	C1164.309448,336.916168 1162.436279,330.096497 1158.950195,326.469879 
	C1145.342407,312.313568 1122.897949,317.182922 1115.995239,336.636475 
z"/>
<path fill="#FFFFFF" opacity="1.000000" stroke="none" 
	d="
M524.083862,303.992065 
	C531.966125,298.558380 540.387329,296.125153 549.548157,294.800171 
	C560.159729,293.265320 570.463745,293.961548 580.693115,296.367218 
	C597.941895,300.423615 608.215271,311.953308 612.723206,328.572815 
	C615.927002,340.384644 615.876099,352.522675 613.974854,364.956970 
	C587.998230,364.956970 562.227112,364.956970 536.504578,364.956970 
	C535.327026,373.952057 538.837830,381.217224 547.230713,384.920349 
	C558.119751,389.724792 569.621277,391.154449 581.539551,389.271149 
	C588.624146,388.151642 595.821289,387.750458 602.963623,386.986786 
	C604.536926,386.818604 606.092346,386.483093 607.999146,386.167908 
	C607.999146,393.703857 608.134705,401.187592 607.856262,408.655853 
	C607.813354,409.806580 605.950317,411.754944 604.789001,411.865631 
	C592.065796,413.078552 579.312927,414.812469 566.571838,414.782623 
	C552.443542,414.749542 538.587830,412.062408 526.435364,403.923859 
	C516.065186,396.978912 509.771942,386.986633 507.186462,375.154541 
	C503.518555,358.368988 503.478912,341.456848 508.971954,324.856537 
	C511.772491,316.393188 516.889221,309.615814 524.083862,303.992065 
M581.988586,328.867096 
	C574.384399,317.007446 558.875732,317.762268 549.481995,320.812073 
	C542.141968,323.195160 534.613586,336.219635 536.416260,343.798096 
	C552.477417,343.798096 568.571289,343.798096 585.939392,343.798096 
	C584.576294,338.738251 583.350159,334.186798 581.988586,328.867096 
z"/>
<path fill="#F4F4F4" opacity="1.000000" stroke="none" 
	d="
M178.859360,492.000000 
	C166.557892,492.278595 154.912369,491.049011 143.966019,486.405396 
	C127.979553,479.623718 119.082382,466.473236 115.369423,450.314606 
	C112.397095,437.379150 111.593613,423.945343 109.766350,410.274689 
	C138.633850,410.274689 166.018890,410.274689 193.702393,410.274689 
	C193.702393,437.588318 193.702393,464.972351 193.702393,493.216187 
	C188.956909,492.814331 184.148575,492.407166 178.859360,492.000000 
z"/>
<path fill="#FFFFFF" opacity="1.000000" stroke="none" 
	d="
M1022.329834,408.824524 
	C1015.796387,402.656708 1013.083435,395.136780 1013.053650,386.779236 
	C1012.927246,351.304230 1013.000000,315.828583 1013.000000,280.353149 
	C1013.000000,278.723236 1013.000000,277.093353 1013.000000,275.233887 
	C1020.743591,275.233887 1028.165161,275.233887 1035.791870,275.233887 
	C1037.297852,281.416779 1038.806885,287.611786 1040.354614,293.965698 
	C1050.119507,293.965698 1059.749878,293.965698 1069.689087,293.965698 
	C1069.689087,302.231323 1069.689087,310.301666 1069.689087,318.769897 
	C1061.441284,318.769897 1053.032715,318.769897 1044.257446,318.769897 
	C1044.158081,320.567566 1044.011475,321.996277 1044.010254,323.425110 
	C1043.994385,340.746429 1043.992065,358.067780 1044.003174,375.389099 
	C1044.009155,384.842407 1048.817383,389.767548 1058.302124,389.986176 
	C1061.962036,390.070526 1065.625488,389.999969 1069.643555,389.999969 
	C1069.643555,398.131073 1069.643555,406.205231 1069.643555,414.126129 
	C1059.101685,414.126129 1048.245605,414.644592 1037.477417,413.897583 
	C1032.433716,413.547729 1027.559326,410.755554 1022.329834,408.824524 
z"/>
<path fill="#FFFFFF" opacity="1.000000" stroke="none" 
	d="
M452.000000,338.000000 
	C452.000000,308.858795 452.000000,280.217621 452.000000,251.288483 
	C462.282074,251.288483 472.354279,251.288483 482.714539,251.288483 
	C482.714539,305.621765 482.714539,360.022156 482.714539,414.711487 
	C472.717834,414.711487 462.645599,414.711487 452.000000,414.711487 
	C452.000000,389.354462 452.000000,363.927246 452.000000,338.000000 
z"/>
<path fill="#FFFFFF" opacity="1.000000" stroke="none" 
	d="
M898.000000,329.000000 
	C898.000000,302.858521 898.000000,277.217010 898.000000,251.288071 
	C908.283081,251.288071 918.355286,251.288071 928.714966,251.288071 
	C928.714966,305.622559 928.714966,360.022949 928.714966,414.711914 
	C918.716980,414.711914 908.644775,414.711914 898.000000,414.711914 
	C898.000000,386.353638 898.000000,357.926819 898.000000,329.000000 
z"/>
<path fill="#FFFFFF" opacity="1.000000" stroke="none" 
	d="
M970.004822,294.000000 
	C975.812927,294.000000 981.122986,294.000000 986.715576,294.000000 
	C986.715576,334.290833 986.715576,374.358582 986.715576,414.713501 
	C976.713928,414.713501 966.641907,414.713501 956.283752,414.713501 
	C956.283752,374.707855 956.283752,334.640137 956.283752,294.000000 
	C960.636475,294.000000 965.071594,294.000000 970.004822,294.000000 
z"/>
<path fill="#FFFFFF" opacity="1.000000" stroke="none" 
	d="
M960.137207,251.000000 
	C969.254333,251.000000 977.885986,251.000000 986.757080,251.000000 
	C986.757080,259.376007 986.757080,267.446808 986.757080,275.759888 
	C976.618286,275.759888 966.547791,275.759888 956.001465,275.759888 
	C956.001465,268.247711 956.107544,260.801331 955.952332,253.360443 
	C955.884827,250.127243 958.046326,251.185104 960.137207,251.000000 
z"/>
<path fill="#FFFFFF" opacity="1.000000" stroke="none" 
	d="
M1025.000000,442.133881 
	C1025.000000,443.251556 1025.167236,443.974640 1024.964600,444.572296 
	C1024.566040,445.747498 1023.962036,446.853058 1023.443115,447.987457 
	C1022.962097,446.817017 1022.107117,445.659546 1022.065979,444.473846 
	C1021.904602,439.826019 1022.000000,435.169220 1022.000000,429.672272 
	C1029.057251,431.054688 1029.105713,438.391663 1034.000000,441.938843 
	C1034.000000,438.971130 1033.862427,436.284027 1034.061401,433.622101 
	C1034.153076,432.395813 1034.903809,431.218842 1035.355713,430.019501 
	C1035.903809,431.287048 1036.868652,432.536438 1036.924805,433.825409 
	C1037.119995,438.308044 1037.000000,442.804382 1037.000000,447.267334 
	C1033.797119,447.912750 1033.819580,447.897614 1030.616943,443.153320 
	C1029.037720,440.813965 1027.357910,438.542542 1025.000000,435.221252 
	C1025.000000,438.202454 1025.000000,439.942505 1025.000000,442.133881 
z"/>
<path fill="#FFFFFF" opacity="1.000000" stroke="none" 
	d="
M1133.008667,437.424622 
	C1133.000732,438.496979 1132.754517,439.303528 1133.042480,439.800568 
	C1134.263428,441.908051 1135.273193,444.495270 1137.139282,445.702301 
	C1137.928345,446.212585 1140.641235,443.748260 1142.893799,442.385498 
	C1140.448608,441.065308 1139.018066,440.292908 1137.587402,439.520538 
	C1137.774414,439.085876 1137.961304,438.651215 1138.148193,438.216553 
	C1140.251709,438.216553 1142.355347,438.216553 1144.730957,438.216553 
	C1144.730957,441.272186 1144.730957,444.365112 1144.730957,447.471313 
	C1139.059448,447.901398 1131.804688,451.736847 1130.080811,441.940796 
	C1129.030151,435.970337 1131.498901,430.850494 1134.994751,430.020020 
	C1140.568970,428.695801 1143.000732,430.090637 1144.977783,436.334534 
	C1140.748413,435.325043 1135.938721,428.264984 1133.008667,437.424622 
z"/>
<path fill="#FFFFFF" opacity="1.000000" stroke="none" 
	d="
M1098.000000,433.234100 
	C1098.000000,438.358093 1098.000000,443.006287 1098.000000,448.403076 
	C1091.828003,446.237030 1091.315918,439.862152 1087.360229,436.531342 
	C1085.582275,440.026031 1089.088989,445.020294 1084.256104,449.039368 
	C1084.256104,442.108795 1084.256104,436.337555 1084.256104,430.560364 
	C1087.230469,430.448486 1087.230469,430.448486 1095.000122,442.752838 
	C1095.000122,438.633453 1094.901245,435.647797 1095.059448,432.675873 
	C1095.107666,431.772308 1095.865234,430.906525 1096.297852,430.023438 
	C1096.865234,430.935059 1097.432617,431.846680 1098.000000,433.234100 
z"/>
<path fill="#FFFFFF" opacity="1.000000" stroke="none" 
	d="
M1148.000000,442.852356 
	C1148.015991,438.552490 1148.029541,434.733734 1148.057861,430.915100 
	C1148.058960,430.778351 1148.206421,430.642731 1148.580078,430.000641 
	C1151.028564,430.000641 1153.799438,429.890717 1156.558350,430.026154 
	C1160.791748,430.234009 1163.240479,433.555084 1160.833618,436.929138 
	C1157.769653,441.224335 1160.224976,444.151917 1161.649292,447.586395 
	C1161.311646,447.920807 1160.974121,448.255188 1160.636475,448.589600 
	C1159.428223,447.321381 1157.463135,446.210571 1157.160156,444.753998 
	C1156.397461,441.087158 1154.518311,440.368683 1151.430908,441.262054 
	C1149.814331,443.301788 1152.908203,447.033936 1148.000000,448.518036 
	C1148.000000,446.415039 1148.000000,444.874268 1148.000000,442.852356 
M1151.003052,436.331604 
	C1153.853149,439.225525 1155.986694,438.826416 1159.668091,433.872437 
	C1156.754761,432.991119 1154.234741,432.228851 1151.286011,431.336823 
	C1151.153442,433.243744 1151.076782,434.345306 1151.003052,436.331604 
z"/>
<path fill="#FFFFFF" opacity="1.000000" stroke="none" 
	d="
M940.348145,430.000519 
	C945.151855,429.733337 949.122803,430.276367 949.971619,435.629639 
	C951.173523,443.209961 949.304077,447.034302 943.845581,448.625458 
	C938.798767,450.096649 933.107727,444.462708 934.127808,438.443665 
	C934.709412,435.011749 935.069824,430.782867 940.348145,430.000519 
M940.131348,445.660004 
	C942.832092,446.334869 945.460693,446.682281 946.374329,443.125092 
	C947.266907,439.649902 948.227783,436.120178 944.787720,433.288055 
	C942.704651,431.573151 938.642029,432.303772 938.125427,434.869537 
	C937.431091,438.317932 936.539978,442.036224 940.131348,445.660004 
z"/>
<path fill="#FFFFFF" opacity="1.000000" stroke="none" 
	d="
M869.999878,434.898560 
	C869.211853,437.145447 868.423706,438.980347 867.591187,440.918488 
	C868.317993,442.860626 869.187561,445.184601 870.057190,447.508575 
	C869.563782,447.824036 869.070374,448.139526 868.576965,448.455017 
	C867.087219,446.190308 865.597534,443.925598 863.786499,441.172485 
	C863.214844,441.172485 861.791199,441.172485 860.653503,441.172485 
	C860.006592,443.687195 859.418335,445.973755 858.830078,448.260315 
	C858.291565,448.101715 857.752991,447.943115 857.214478,447.784515 
	C857.214478,442.049438 857.214478,436.314362 857.218506,430.577698 
	C868.867126,429.115173 869.464050,430.071381 869.999878,434.898560 
M860.003357,436.359741 
	C861.927979,436.803101 863.843994,437.426697 865.785461,437.519745 
	C866.125305,437.536072 867.105225,434.410980 866.886108,434.282990 
	C864.915344,433.131439 862.742737,432.325439 860.000305,431.147888 
	C860.000305,433.504028 860.000305,434.487213 860.003357,436.359741 
z"/>
<path fill="#FFFFFF" opacity="1.000000" stroke="none" 
	d="
M929.749817,442.343750 
	C930.675354,444.260498 931.382751,445.855042 932.177002,447.645416 
	C925.865540,449.686890 929.154236,437.981537 922.449707,441.382446 
	C921.997803,443.537476 921.495422,445.933380 920.992981,448.329315 
	C920.421204,448.198395 919.849365,448.067474 919.277588,447.936554 
	C919.277588,442.190826 919.277588,436.445099 919.277588,430.006012 
	C922.157349,430.006012 925.245911,429.777954 928.286011,430.064362 
	C931.993591,430.413605 933.356812,435.061401 931.027954,438.498749 
	C930.325745,439.535217 930.019348,440.839783 929.749817,442.343750 
M922.000244,434.571045 
	C922.093445,435.680450 922.186646,436.789886 922.374329,439.023743 
	C924.950195,437.813202 926.959961,436.868683 928.969788,435.924194 
	C928.476929,434.921326 928.243652,433.513733 927.438721,432.997589 
	C925.613159,431.826904 923.424744,430.513824 922.000244,434.571045 
z"/>
<path fill="#FFFFFF" opacity="1.000000" stroke="none" 
	d="
M847.823608,430.000031 
	C853.474060,431.097076 854.950745,434.415466 853.999268,442.920990 
	C853.658142,445.970367 849.621399,449.145142 846.286316,448.986877 
	C841.752808,448.771729 839.036011,445.379761 838.999939,439.889404 
	C838.946960,431.831940 840.377441,430.147491 847.823608,430.000031 
M851.000000,439.481689 
	C850.999573,438.654755 851.039185,437.825531 850.991516,437.001343 
	C850.818665,434.014191 849.207703,431.933838 846.260376,432.132141 
	C843.394775,432.324921 841.941345,434.518982 841.997437,437.495544 
	C842.016174,438.487488 841.896729,439.493195 842.020142,440.469910 
	C842.373108,443.262939 842.687805,446.109100 846.616882,446.011658 
	C850.455261,445.916443 851.197205,443.518219 851.000000,439.481689 
z"/>
<path fill="#FFFFFF" opacity="1.000000" stroke="none" 
	d="
M982.820312,447.322021 
	C982.162476,445.775726 981.782288,444.527039 981.402161,443.278381 
	C982.366699,443.728912 983.298523,444.280243 984.303223,444.607239 
	C985.960327,445.146606 987.668274,445.877747 989.347595,445.859711 
	C990.236206,445.850189 991.529297,444.565277 991.837952,443.599823 
	C992.033691,442.987213 990.937927,441.513672 990.096130,441.117889 
	C988.680603,440.452362 986.661316,440.779236 985.520447,439.888702 
	C983.751282,438.507751 981.045837,436.073486 981.384277,434.776855 
	C981.883240,432.865875 984.505981,430.680817 986.590210,430.200378 
	C989.983398,429.418213 993.897522,429.481384 995.260498,435.613647 
	C993.167786,434.478210 991.891052,433.605255 990.484985,433.075836 
	C989.206909,432.594543 987.767029,432.230133 986.441772,432.339417 
	C985.905334,432.383667 984.902710,434.270996 985.113953,434.543640 
	C985.891418,435.547211 987.051392,436.280365 988.135315,437.015137 
	C990.397644,438.548737 993.896484,439.533997 994.741882,441.615814 
	C996.488342,445.916168 991.634583,450.012970 986.721069,448.911560 
	C985.479248,448.633179 984.303833,448.058289 982.820312,447.322021 
z"/>
<path fill="#FFFFFF" opacity="1.000000" stroke="none" 
	d="
M1018.917847,444.241943 
	C1014.179077,449.327850 1010.337341,450.108917 1006.645325,447.140350 
	C1003.683411,444.758789 1002.266907,435.318848 1005.345520,432.738373 
	C1007.613892,430.837067 1011.556274,430.067322 1014.619141,430.333130 
	C1016.226990,430.472687 1018.173035,433.733795 1018.830505,435.925964 
	C1019.559265,438.356079 1018.992249,441.174774 1018.917847,444.241943 
M1009.820862,445.969421 
	C1015.689636,445.839905 1017.969177,442.240143 1015.739990,435.748749 
	C1015.205139,434.191315 1012.887085,432.253967 1011.426208,432.284180 
	C1009.949524,432.314728 1007.323792,434.551636 1007.303711,435.854401 
	C1007.253967,439.088226 1008.402771,442.340546 1009.820862,445.969421 
z"/>
<path fill="#FFFFFF" opacity="1.000000" stroke="none" 
	d="
M779.019775,433.074768 
	C780.177246,431.777649 781.315491,430.891144 782.453735,430.004608 
	C783.083252,430.936432 783.908875,431.791473 784.308960,432.813141 
	C786.220581,437.695221 788.016846,442.622467 790.346497,448.849670 
	C786.872009,446.443298 784.411682,443.426147 781.893188,443.376831 
	C779.533325,443.330536 777.111877,446.426239 773.548340,448.975739 
	C775.678650,442.923187 777.339600,438.204315 779.019775,433.074768 
z"/>
<path fill="#FFFFFF" opacity="1.000000" stroke="none" 
	d="
M792.017090,434.213226 
	C794.619812,429.654022 801.311035,428.303284 803.931458,431.504700 
	C804.541687,432.250275 804.516174,433.516235 804.783203,434.542786 
	C803.818237,434.214050 802.867004,433.835022 801.885254,433.568024 
	C800.306824,433.138885 798.706970,432.512909 797.119019,432.521301 
	C796.412720,432.524994 795.713623,433.870941 795.011353,434.607666 
	C796.470947,435.661377 797.820007,437.359619 799.413452,437.632812 
	C802.605347,438.180145 805.377075,439.206451 805.825989,442.530182 
	C806.041992,444.129150 804.950562,446.576294 803.639771,447.585541 
	C799.493469,450.778168 793.646057,448.501923 791.263367,442.670502 
	C795.268921,443.460175 798.849243,449.754242 803.126892,442.897308 
	C800.864014,441.931458 798.639404,440.824646 796.308716,440.028595 
	C793.639221,439.116821 791.332275,438.113251 792.017090,434.213226 
z"/>
<path fill="#FFFFFF" opacity="1.000000" stroke="none" 
	d="
M1042.985596,445.818909 
	C1041.898071,446.923920 1040.826172,447.621185 1039.754150,448.318451 
	C1039.508057,448.073639 1039.261963,447.828857 1039.015869,447.584045 
	C1040.846436,442.389130 1042.591553,437.160858 1044.589233,432.031006 
	C1044.935547,431.141693 1046.282593,430.433014 1047.310669,430.134888 
	C1047.656982,430.034485 1048.664917,431.377686 1048.998535,432.210175 
	C1051.020630,437.256409 1052.935059,442.345734 1054.037231,448.372192 
	C1053.026245,447.435730 1051.677856,446.678528 1051.067383,445.529297 
	C1049.187622,441.991028 1045.694580,441.864594 1042.985596,445.818909 
z"/>
<path fill="#FFFFFF" opacity="1.000000" stroke="none" 
	d="
M832.068604,441.579590 
	C829.838135,440.662415 827.669495,440.352234 825.938110,439.313263 
	C824.662781,438.548004 823.089172,436.744659 823.206177,435.557404 
	C823.377502,433.819122 824.576599,431.316895 825.988770,430.743317 
	C829.095825,429.481293 832.731201,428.764465 835.403809,432.003510 
	C835.872803,432.571930 835.591003,433.759796 835.656006,434.661591 
	C834.766357,434.398743 833.865479,434.168335 832.989502,433.865845 
	C831.463318,433.338776 829.962036,432.405334 828.431152,432.364655 
	C827.647400,432.343842 826.453308,433.781250 826.169617,434.768036 
	C826.025635,435.268982 827.379700,436.414154 828.254517,436.936401 
	C829.186646,437.492889 830.585510,437.382629 831.370728,438.047546 
	C833.367249,439.738220 836.559753,441.598694 836.699097,443.572876 
	C836.994629,447.760742 833.015869,449.072723 829.603821,448.839600 
	C826.395447,448.620392 823.018677,447.413055 822.243225,442.138641 
	C824.238525,443.535004 825.480408,445.004333 826.945374,445.277740 
	C828.787354,445.621460 830.811951,444.986511 832.757812,444.773865 
	C832.611145,443.807220 832.464478,442.840637 832.068604,441.579590 
z"/>
<path fill="#FFFFFF" opacity="1.000000" stroke="none" 
	d="
M884.317688,443.015808 
	C882.785706,444.851074 881.682678,446.672699 880.579651,448.494293 
	C880.014587,448.187439 879.449524,447.880554 878.884460,447.573700 
	C880.720642,442.434937 882.474487,437.263885 884.468140,432.186951 
	C884.831360,431.261963 886.121826,430.277863 887.082275,430.166504 
	C887.674866,430.097809 888.742859,431.520172 889.099487,432.461731 
	C891.018188,437.526733 892.780823,442.650818 894.847290,448.456787 
	C893.312561,447.803162 891.230469,447.409668 891.170105,446.811951 
	C890.725464,442.410126 887.686707,442.884918 884.317688,443.015808 
z"/>
<path fill="#FFFFFF" opacity="1.000000" stroke="none" 
	d="
M1175.995850,446.933289 
	C1175.451050,445.386139 1174.950806,444.254883 1174.219238,442.600586 
	C1172.189331,443.056244 1169.859253,443.097687 1168.097534,444.119415 
	C1166.545654,445.019409 1165.629150,447.014862 1164.432007,448.526642 
	C1164.041382,448.234039 1163.650635,447.941467 1163.260010,447.648895 
	C1165.003662,442.779877 1166.684326,437.886658 1168.537720,433.059814 
	C1168.973145,431.925842 1169.992920,431.016174 1170.743896,430.003357 
	C1171.819946,430.952301 1173.410767,431.697388 1173.881348,432.886108 
	C1175.754395,437.617340 1177.278198,442.486908 1179.149658,447.941437 
	C1177.907715,447.704865 1176.974121,447.527039 1175.995850,446.933289 
z"/>
<path fill="#FFFFFF" opacity="1.000000" stroke="none" 
	d="
M913.289673,440.898468 
	C911.069702,440.987244 909.267212,440.987244 907.624878,440.987244 
	C906.991150,443.614807 906.423950,445.966461 905.856750,448.318146 
	C905.317749,448.169159 904.778748,448.020142 904.239746,447.871124 
	C904.239746,442.108856 904.239746,436.346558 904.239746,430.198212 
	C908.626160,430.234039 913.608826,428.176483 916.588745,433.237976 
	C918.462585,436.420746 916.037292,438.790131 913.289673,440.898468 
M913.510010,434.013275 
	C911.549988,433.159912 909.589905,432.306549 907.189270,431.261353 
	C907.189270,434.631409 907.189270,436.707031 907.189270,438.941498 
	C910.503174,438.917328 913.648071,439.088623 913.510010,434.013275 
z"/>
<path fill="#FFFFFF" opacity="1.000000" stroke="none" 
	d="
M811.110229,447.999847 
	C809.753845,447.046021 808.174866,446.131226 808.119568,445.132080 
	C807.854004,440.334564 808.000183,435.514221 808.000183,430.374084 
	C812.037903,430.374084 815.975891,430.374084 819.913940,430.374084 
	C819.952026,430.779144 819.990173,431.184235 820.028320,431.589294 
	C817.151245,431.808502 814.274170,432.027679 811.209229,432.261169 
	C811.209229,434.082306 811.209229,435.820953 811.209229,438.087280 
	C813.843750,438.087280 816.382324,438.087280 818.920959,438.087280 
	C818.962402,438.572327 819.003845,439.057373 819.045349,439.542389 
	C816.540283,439.775299 814.035156,440.008209 811.257935,440.266418 
	C811.257935,441.982574 811.257935,443.723907 811.257935,445.811859 
	C814.115601,445.954803 817.058411,446.102020 820.001221,446.249237 
	C819.999207,446.832825 819.997192,447.416412 819.995117,448.000000 
	C817.193359,448.000000 814.391602,448.000000 811.110229,447.999847 
z"/>
<path fill="#FFFFFF" opacity="1.000000" stroke="none" 
	d="
M974.915161,446.000000 
	C976.578308,446.128387 977.777344,446.256775 978.976379,446.385132 
	C978.972839,446.730316 978.969299,447.075470 978.965698,447.420654 
	C975.226746,447.420654 971.487732,447.420654 967.365601,447.420654 
	C967.365601,442.103119 967.365601,436.256683 967.365601,430.334229 
	C971.235474,430.334229 975.076294,430.334229 978.917175,430.334229 
	C978.955078,430.739136 978.992981,431.144012 979.030945,431.548920 
	C976.177612,431.782471 973.324280,432.016052 970.237610,432.268707 
	C970.237610,434.028809 970.237610,435.767639 970.237610,438.025696 
	C972.801086,438.025696 975.372009,438.025696 977.942993,438.025696 
	C977.980469,438.517822 978.017944,439.009979 978.055359,439.502106 
	C975.561646,439.748169 973.067932,439.994232 970.195374,440.277649 
	C970.122314,441.925201 970.044983,443.669830 969.952087,445.765198 
	C971.578613,445.850098 973.014832,445.925018 974.915161,446.000000 
z"/>
<path fill="#FFFFFF" opacity="1.000000" stroke="none" 
	d="
M1124.715088,430.001251 
	C1125.815796,430.228394 1126.452026,430.454376 1127.088135,430.680389 
	C1127.054688,431.018860 1127.021240,431.357361 1126.987671,431.695862 
	C1124.486084,431.695862 1121.984375,431.695862 1119.249268,431.695862 
	C1119.249268,434.001678 1119.249268,435.743103 1119.249268,437.813171 
	C1121.808350,437.958099 1124.410278,438.105469 1127.012207,438.252838 
	C1127.008057,438.737915 1127.003906,439.222992 1126.999878,439.708069 
	C1124.528687,439.860931 1122.057495,440.013763 1119.203247,440.190308 
	C1119.124390,441.901337 1119.043945,443.646912 1118.948364,445.719574 
	C1122.062012,445.920258 1125.025391,446.111267 1127.988770,446.302277 
	C1127.979126,446.681427 1127.969482,447.060608 1127.959839,447.439758 
	C1124.210083,447.439758 1120.460327,447.439758 1116.348755,447.439758 
	C1116.348755,442.083984 1116.348755,436.232056 1116.348755,430.000122 
	C1119.019165,430.000122 1121.634766,430.000122 1124.715088,430.001251 
z"/>
<path fill="#FFFFFF" opacity="1.000000" stroke="none" 
	d="
M1105.977295,434.301575 
	C1104.593384,433.553314 1103.163818,433.441956 1101.888306,432.939209 
	C1101.023438,432.598328 1100.375244,431.707703 1098.677002,430.238129 
	C1104.747681,430.238129 1109.320068,430.238129 1113.892578,430.238129 
	C1114.053711,430.760254 1114.214844,431.282410 1114.375854,431.804535 
	C1112.698242,432.407440 1111.020508,433.010315 1108.999634,433.736542 
	C1108.999634,437.424377 1109.077393,441.388489 1108.940063,445.345123 
	C1108.909180,446.235962 1108.128174,447.100739 1107.692505,447.977539 
	C1107.128418,447.063263 1106.130737,446.173462 1106.077515,445.230377 
	C1105.881348,441.753693 1105.998047,438.259399 1105.977295,434.301575 
z"/>
<path fill="#FFFFFF" opacity="1.000000" stroke="none" 
	d="
M958.110107,437.997955 
	C960.376404,437.999695 962.186707,437.999695 963.996948,437.999695 
	C964.000000,438.578705 964.002991,439.157745 964.006042,439.736755 
	C961.531982,439.875000 959.057983,440.013214 956.565063,440.152466 
	C956.050964,442.874725 955.537415,445.594299 955.023804,448.313873 
	C954.449341,448.188080 953.874878,448.062317 953.300415,447.936523 
	C953.300415,442.074585 953.300415,436.212646 953.300415,430.368988 
	C956.939392,430.368988 960.429321,430.368988 963.919312,430.368988 
	C963.957825,430.777588 963.996338,431.186188 964.034851,431.594788 
	C961.494080,431.812012 958.953247,432.029205 955.279175,432.343292 
	C956.162292,434.445251 956.908203,436.220734 958.110107,437.997955 
z"/>
<path fill="#FFFFFF" opacity="1.000000" stroke="none" 
	d="
M1184.000000,435.132965 
	C1184.000000,438.899292 1184.000000,442.185577 1184.000000,446.218262 
	C1187.144897,446.218262 1190.065430,446.218262 1192.985840,446.218262 
	C1192.975586,446.640137 1192.965332,447.061981 1192.955078,447.483856 
	C1189.194824,447.483856 1185.434448,447.483856 1181.000000,447.483856 
	C1181.000000,442.853729 1180.940308,437.791473 1181.054810,432.733185 
	C1181.075317,431.823273 1181.812744,430.929565 1182.219116,430.028442 
	C1182.812622,430.907471 1183.523682,431.733337 1183.954590,432.685944 
	C1184.203247,433.235901 1183.999878,433.990448 1184.000000,435.132965 
z"/>
<path fill="#FFFFFF" opacity="1.000000" stroke="none" 
	d="
M1059.998657,432.280945 
	C1060.000000,437.029175 1060.000000,441.303192 1060.000000,446.085602 
	C1062.861816,446.085602 1065.394043,446.085602 1067.926147,446.085602 
	C1067.961304,446.490875 1067.996338,446.896179 1068.031494,447.301453 
	C1064.550903,447.301453 1061.070312,447.301453 1057.001953,447.301453 
	C1057.001953,442.570709 1056.951416,437.334351 1057.062012,432.101410 
	C1057.076782,431.398804 1057.904541,430.713409 1058.355835,430.020020 
	C1058.903076,430.615601 1059.450195,431.211151 1059.998657,432.280945 
z"/>
<path fill="#FFFFFF" opacity="1.000000" stroke="none" 
	d="
M1080.000000,443.813293 
	C1079.427856,445.518738 1078.855713,446.746948 1078.283569,447.975159 
	C1077.855713,446.765961 1077.104736,445.568878 1077.059082,444.345398 
	C1076.905029,440.220764 1076.935913,436.084656 1077.068970,431.958496 
	C1077.090332,431.294647 1077.994019,430.659241 1078.489990,430.010681 
	C1078.992554,430.652466 1079.905640,431.279144 1079.929932,431.938599 
	C1080.069824,435.733490 1079.999268,439.536072 1080.000000,443.813293 
z"/>
<path fill="#FFFFFF" opacity="1.000000" stroke="none" 
	d="
M998.000000,434.186707 
	C998.572205,432.481262 999.144409,431.253082 999.716553,430.024872 
	C1000.144348,431.234070 1000.895386,432.431213 1000.941040,433.654694 
	C1001.095093,437.779327 1001.064209,441.915375 1000.931213,446.041534 
	C1000.909790,446.705383 1000.005981,447.340790 999.510071,447.989319 
	C999.007507,447.347473 998.094421,446.720764 998.070190,446.061279 
	C997.930298,442.266479 998.000793,438.463898 998.000000,434.186707 
z"/>
<path fill="#FFFFFF" opacity="1.000000" stroke="none" 
	d="
M874.021118,431.336548 
	C875.861267,429.147888 876.934143,429.581512 876.975464,432.038177 
	C877.053406,436.664276 877.054810,441.294037 876.937073,445.918457 
	C876.919312,446.616699 876.087708,447.294220 875.632568,447.981323 
	C875.088867,447.217499 874.099670,446.467957 874.074646,445.687561 
	C873.926636,441.064911 874.002197,436.435120 874.021118,431.336548 
z"/>
<path fill="#000000" opacity="1.000000" stroke="none" 
	d="
M675.428589,323.205353 
	C686.744263,317.887268 698.102905,319.404877 709.418213,321.290161 
	C710.436768,321.459869 711.879333,323.476685 711.889771,324.646637 
	C712.047791,342.469452 712.024902,360.294250 711.935303,378.118011 
	C711.930115,379.145844 711.254761,380.729095 710.447083,381.108734 
	C700.920105,385.587189 690.691467,387.712708 680.470642,385.591858 
	C669.347900,383.283813 663.608459,374.593994 662.212341,363.934113 
	C660.834717,353.415527 660.480286,342.497589 666.161987,332.851166 
	C668.307190,329.208832 672.064148,326.515778 675.428589,323.205353 
z"/>
<path fill="#000000" opacity="1.000000" stroke="none" 
	d="
M838.962646,383.530212 
	C830.330933,389.087769 821.452271,392.472565 811.337769,392.030396 
	C797.247925,391.414490 792.347290,379.061951 798.122437,369.259735 
	C799.500183,366.921204 802.610596,365.207794 805.293274,364.105316 
	C814.616455,360.273682 824.238892,362.621216 833.757507,363.376404 
	C835.678772,363.528839 837.574829,364.000244 840.290344,364.461945 
	C839.943665,370.551758 839.583496,376.879333 838.962646,383.530212 
z"/>
<path fill="#000000" opacity="1.000000" stroke="none" 
	d="
M1115.998047,336.212158 
	C1122.897949,317.182922 1145.342407,312.313568 1158.950195,326.469879 
	C1162.436279,330.096497 1164.309448,336.916168 1163.636719,343.801270 
	C1147.569824,343.801270 1131.483032,343.801270 1114.690796,343.801270 
	C1115.155762,341.247437 1115.575562,338.941956 1115.998047,336.212158 
z"/>
<path fill="#000000" opacity="1.000000" stroke="none" 
	d="
M582.056274,329.251221 
	C583.350159,334.186798 584.576294,338.738251 585.939392,343.798096 
	C568.571289,343.798096 552.477417,343.798096 536.416260,343.798096 
	C534.613586,336.219635 542.141968,323.195160 549.481995,320.812073 
	C558.875732,317.762268 574.384399,317.007446 582.056274,329.251221 
z"/>
<path fill="#000000" opacity="1.000000" stroke="none" 
	d="
M1151.001709,435.889252 
	C1151.076782,434.345306 1151.153442,433.243744 1151.286011,431.336823 
	C1154.234741,432.228851 1156.754761,432.991119 1159.668091,433.872437 
	C1155.986694,438.826416 1153.853149,439.225525 1151.001709,435.889252 
z"/>
<path fill="#000000" opacity="1.000000" stroke="none" 
	d="
M939.857666,445.355957 
	C936.539978,442.036224 937.431091,438.317932 938.125427,434.869537 
	C938.642029,432.303772 942.704651,431.573151 944.787720,433.288055 
	C948.227783,436.120178 947.266907,439.649902 946.374329,443.125092 
	C945.460693,446.682281 942.832092,446.334869 939.857666,445.355957 
z"/>
<path fill="#000000" opacity="1.000000" stroke="none" 
	d="
M860.001831,435.915070 
	C860.000305,434.487213 860.000305,433.504028 860.000305,431.147888 
	C862.742737,432.325439 864.915344,433.131439 866.886108,434.282990 
	C867.105225,434.410980 866.125305,437.536072 865.785461,437.519745 
	C863.843994,437.426697 861.927979,436.803101 860.001831,435.915070 
z"/>
<path fill="#000000" opacity="1.000000" stroke="none" 
	d="
M922.001587,434.127258 
	C923.424744,430.513824 925.613159,431.826904 927.438721,432.997589 
	C928.243652,433.513733 928.476929,434.921326 928.969788,435.924194 
	C926.959961,436.868683 924.950195,437.813202 922.374329,439.023743 
	C922.186646,436.789886 922.093445,435.680450 922.001587,434.127258 
z"/>
<path fill="#000000" opacity="1.000000" stroke="none" 
	d="
M851.000000,439.914917 
	C851.197205,443.518219 850.455261,445.916443 846.616882,446.011658 
	C842.687805,446.109100 842.373108,443.262939 842.020142,440.469910 
	C841.896729,439.493195 842.016174,438.487488 841.997437,437.495544 
	C841.941345,434.518982 843.394775,432.324921 846.260376,432.132141 
	C849.207703,431.933838 850.818665,434.014191 850.991516,437.001343 
	C851.039185,437.825531 850.999573,438.654755 851.000000,439.914917 
z"/>
<path fill="#000000" opacity="1.000000" stroke="none" 
	d="
M1009.445557,445.777435 
	C1008.402771,442.340546 1007.253967,439.088226 1007.303711,435.854401 
	C1007.323792,434.551636 1009.949524,432.314728 1011.426208,432.284180 
	C1012.887085,432.253967 1015.205139,434.191315 1015.739990,435.748749 
	C1017.969177,442.240143 1015.689636,445.839905 1009.445557,445.777435 
z"/>
<path fill="#000000" opacity="1.000000" stroke="none" 
	d="
M913.736145,434.354431 
	C913.648071,439.088623 910.503174,438.917328 907.189270,438.941498 
	C907.189270,436.707031 907.189270,434.631409 907.189270,431.261353 
	C909.589905,432.306549 911.549988,433.159912 913.736145,434.354431 
z"/>
</svg>